# File created by Blade
# Date/Time:  Wed Jan 21 19:03:17 2015
#---------------------------------------------------------
:version 1.10
:name HOM
:units
  mass 1.0
  length 1.000000
  angle deg
:documentation
     Acclaim Skeleton File
:root
   axis xyz
   order TX TY TZ RX RY RZ
   position 0.000000 0.000000 0.000000
   orientation 0 0 0
:bonedata
   begin
      id 1
      name RightUpLeg_dum
      direction -1.000000 0.000000 0.000000
      length 3.693983
      axis 0.0 0.0 0.0 xyz
   end
   begin
      id 2
      name LeftUpLeg_dum
      direction 1.000000 0.000000 0.000000
      length 3.693983
      axis 0.0 0.0 0.0 xyz
   end
   begin
      id 3
      name Spine_dum
      direction 0.000000 1.000000 0.000000
      length 2.392956
      axis 0.0 0.0 0.0 xyz
   end
   begin
      id 4
      name RightUpLeg
      direction 0.000000 -1.000000 0.000000
      length 15.795667
      axis 0.0 0.0 0.0 xyz
      dof rx ry rz
   end
   begin
      id 5
      name RightLeg
      direction 0.000000 -1.000000 0.000000
      length 14.766989
      axis 0.0 0.0 0.0 xyz
      dof rx ry rz
   end
   begin
      id 6
      name RightFoot
      direction 0.000000 -0.258819 0.965926
      length 4.962790
      axis 15.0 0.0 0.0 xyz
      dof rx ry rz
   end
   begin
      id 7
      name RightToeBase
      direction 0.000000 0.000000 1.000000
      length 2.952750
      axis 0.0 0.0 0.0 xyz
      dof rx ry rz
   end
   begin
      id 8
      name LeftUpLeg
      direction 0.000000 -1.000000 0.000000
      length 15.795667
      axis 0.0 0.0 0.0 xyz
      dof rx ry rz
   end
   begin
      id 9
      name LeftLeg
      direction 0.000000 -1.000000 0.000000
      length 14.766989
      axis 0.0 0.0 0.0 xyz
      dof rx ry rz
   end
   begin
      id 10
      name LeftFoot
      direction 0.000000 -0.258819 0.965926
      length 4.962790
      axis 15.0 0.0 0.0 xyz
      dof rx ry rz
   end
   begin
      id 11
      name LeftToeBase
      direction 0.000000 0.000000 1.000000
      length 2.952750
      axis 0.0 0.0 0.0 xyz
      dof rx ry rz
   end
   begin
      id 12
      name Spine
      direction 0.000000 1.000000 0.000000
      length 0.000000
      axis 0.0 0.0 0.0 xyz
      dof rx ry rz
   end
   begin
      id 13
      name Spine_dum1
      direction 0.000000 1.000000 0.000000
      length 13.207411
      axis 0.0 0.0 0.0 xyz
   end
   begin
      id 14
      name Spine_dum2
      direction 0.000000 1.000000 0.000000
      length 13.207411
      axis 0.0 0.0 0.0 xyz
   end
   begin
      id 15
      name Spine_dum3
      direction 0.000000 1.000000 0.000000
      length 19.250100
      axis 0.0 0.0 0.0 xyz
   end
   begin
      id 16
      name RightShoulder
      direction -1.000000 0.000000 0.000000
      length 8.140465
      axis 0.0 0.0 90.0 xyz
      dof rx ry rz
   end
   begin
      id 17
      name RightArm
      direction -1.000000 0.000000 0.000000
      length 10.649840
      axis 0.0 0.0 90.0 xyz
      dof rx ry rz
   end
   begin
      id 18
      name RightForeArm
      direction -1.000000 0.000000 0.000000
      length 8.304624
      axis 0.0 0.0 90.0 xyz
      dof ry rz rx
   end
   begin
      id 19
      name RightHand
      direction -1.000000 0.000000 0.000000
      length 0.000000
      axis 0.0 0.0 90.0 xyz
      dof rx ry rz
   end
   begin
      id 20
      name RightHand_dum1
      direction -1.000000 0.000000 0.000000
      length 3.937000
      axis 0.0 0.0 90.0 xyz
   end
   begin
      id 21
      name RightHand_dum2
      direction 0.000000 0.000000 0.000000
      length 0.000000
      axis 0.0 0.0 90.0 xyz
   end
   begin
      id 22
      name RightHandThumb1
      direction 0.000000 0.000000 1.000000
      length 3.937000
      axis 0.0 0.0 90.0 xyz
      dof rx rz ry
   end
   begin
      id 23
      name LeftShoulder
      direction 1.000000 0.000000 0.000000
      length 8.140465
      axis 0.0 0.0 -90.0 xyz
      dof rx ry rz
   end
   begin
      id 24
      name LeftArm
      direction 1.000000 0.000000 0.000000
      length 10.649840
      axis 0.0 0.0 -90.0 xyz
      dof rx ry rz
   end
   begin
      id 25
      name LeftForeArm
      direction 1.000000 0.000000 0.000000
      length 8.304624
      axis 0.0 0.0 -90.0 xyz
      dof ry rz rx
   end
   begin
      id 26
      name LeftHand
      direction 1.000000 0.000000 0.000000
      length 0.000000
      axis 0.0 0.0 -90.0 xyz
      dof rx ry rz
   end
   begin
      id 27
      name LeftHand_dum1
      direction 1.000000 0.000000 0.000000
      length 3.937000
      axis 0.0 0.0 -90.0 xyz
   end
   begin
      id 28
      name LeftHand_dum2
      direction 0.000000 0.000000 0.000000
      length 0.000000
      axis 0.0 0.0 -90.0 xyz
   end
   begin
      id 29
      name LeftHandThumb1
      direction 0.000000 0.000000 1.000000
      length 3.937000
      axis 0.0 0.0 -90.0 xyz
      dof rx rz ry
   end
   begin
      id 30
      name Head
      direction 0.000000 1.000000 0.000000
      length 4.527550
      axis 0.0 0.0 0.0 xyz
      dof rx ry rz
   end
:hierarchy
   begin
      root RightUpLeg_dum LeftUpLeg_dum Spine_dum
      RightUpLeg_dum RightUpLeg
      LeftUpLeg_dum LeftUpLeg
      Spine_dum Spine
      RightUpLeg RightLeg
      RightLeg RightFoot
      RightFoot RightToeBase
      LeftUpLeg LeftLeg
      LeftLeg LeftFoot
      LeftFoot LeftToeBase
      Spine Spine_dum1 Spine_dum2 Spine_dum3
      Spine_dum1 RightShoulder
      Spine_dum2 LeftShoulder
      Spine_dum3 Head
      RightShoulder RightArm
      RightArm RightForeArm
      RightForeArm RightHand
      RightHand RightHand_dum1 RightHand_dum2
      RightHand_dum2 RightHandThumb1
      LeftShoulder LeftArm
      LeftArm LeftForeArm
      LeftForeArm LeftHand
      LeftHand LeftHand_dum1 LeftHand_dum2
      LeftHand_dum2 LeftHandThumb1
   end

# File created by Blade
# Date/Time:  Wed Jan 21 19:03:07 2015
# Frame Rate: 120.000 fps
#------------------------------------------------------
:FULLY-SPECIFIED
:DEGREES
85
root -3.265225 32.599532 -4.262739 38.178043 3.984221 1.056302
RightUpLeg -30.526830 -10.804664 8.877911
RightLeg -4.350438 -0.000000 0.000000
RightFoot -8.999472 3.755333 19.949390
RightToeBase 21.107159 -0.000000 -0.000000
LeftUpLeg -33.056786 2.010348 -2.475470
LeftLeg 0.801038 -0.000000 -0.000000
LeftFoot -9.180977 -7.492469 -7.329969
LeftToeBase 9.787108 -0.000000 -0.000000
Spine -41.042063 -2.808994 1.257450
RightShoulder -19.454722 17.571358 -48.708374
RightArm 4.235249 -16.274560 36.500039
RightForeArm 4.579976 -0.000000 -7.506517
RightHand 3.229617 -0.000000 9.759173
RightHandThumb1 -24.326973 -0.000000 -32.862282
LeftShoulder -13.150373 2.747793 41.278196
LeftArm 22.479858 -15.259790 -33.431288
LeftForeArm 17.616598 -0.000000 -4.360826
LeftHand -22.361243 0.000000 -3.321704
LeftHandThumb1 -26.253704 0.000000 33.147579
Head 7.085215 0.712706 5.570078
86
root -3.267843 32.599830 -4.265619 38.175364 3.989947 1.050007
RightUpLeg -30.535231 -10.808838 8.895468
RightLeg -4.337204 -0.000000 0.000000
RightFoot -9.038780 3.749614 19.815833
RightToeBase 21.214932 -0.000000 -0.000000
LeftUpLeg -33.063138 2.016475 -2.466802
LeftLeg 0.805939 -0.000000 -0.000000
LeftFoot -9.178617 -7.495334 -7.308288
LeftToeBase 9.768609 -0.000000 -0.000000
Spine -41.043630 -2.798096 1.257918
RightShoulder -19.467230 17.561404 -48.682276
RightArm 4.225585 -16.303095 36.477858
RightForeArm 4.570442 -0.000000 -7.511298
RightHand 3.253699 -0.000000 9.764628
RightHandThumb1 -24.326973 -0.000000 -32.862282
LeftShoulder -13.142104 2.740511 41.286420
LeftArm 22.481301 -15.220691 -33.438440
LeftForeArm 17.624070 -0.000000 -4.350357
LeftHand -22.316494 0.000000 -3.333023
LeftHandThumb1 -26.253704 0.000000 33.147579
Head 7.111140 0.694848 5.588157
87
root -3.270257 32.599401 -4.269220 38.167990 4.002675 1.038958
RightUpLeg -30.532295 -10.799117 8.907601
RightLeg -4.340724 -0.000000 0.000000
RightFoot -9.021715 3.746765 19.847000
RightToeBase 21.175791 -0.000000 -0.000000
LeftUpLeg -33.066282 2.022164 -2.453764
LeftLeg 0.809736 -0.000000 -0.000000
LeftFoot -9.198018 -7.490641 -7.321151
LeftToeBase 9.811038 -0.000000 -0.000000
Spine -41.039580 -2.790236 1.265956
RightShoulder -19.471728 17.555018 -48.660748
RightArm 4.208920 -16.340207 36.469251
RightForeArm 4.602162 -0.000000 -7.522493
RightHand 3.195283 0.000000 9.858385
RightHandThumb1 -24.326973 -0.000000 -32.862282
LeftShoulder -13.125344 2.728172 41.308602
LeftArm 22.473404 -15.159446 -33.455434
LeftForeArm 17.594531 -0.000000 -4.346636
LeftHand -22.300666 -0.000000 -3.349858
LeftHandThumb1 -26.253704 0.000000 33.147579
Head 7.136684 0.683534 5.616118
88
root -3.272088 32.600513 -4.271888 38.165906 4.007154 1.059720
RightUpLeg -30.536953 -10.816892 8.899205
RightLeg -4.337082 -0.000000 0.000000
RightFoot -9.007259 3.744491 19.888115
RightToeBase 21.143870 -0.000000 -0.000000
LeftUpLeg -33.066969 2.019746 -2.471112
LeftLeg 0.803092 -0.000000 -0.000000
LeftFoot -9.166848 -7.504178 -7.335578
LeftToeBase 9.821343 -0.000000 -0.000000
Spine -41.042141 -2.799653 1.250504
RightShoulder -19.490289 17.508059 -48.624700
RightArm 4.255841 -16.365115 36.455183
RightForeArm 4.600034 -0.000000 -7.545394
RightHand 3.238797 0.000000 9.778112
RightHandThumb1 -24.326973 -0.000000 -32.862282
LeftShoulder -13.121501 2.726379 41.309876
LeftArm 22.484817 -15.119844 -33.467880
LeftForeArm 17.591064 -0.000000 -4.347401
LeftHand -22.287577 -0.000000 -3.366635
LeftHandThumb1 -26.253704 0.000000 33.147579
Head 7.170640 0.672793 5.634220
89
root -3.274532 32.600918 -4.274564 38.155008 4.010447 1.059355
RightUpLeg -30.540451 -10.824511 8.905800
RightLeg -4.320154 -0.000000 0.000000
RightFoot -8.996657 3.766379 19.921047
RightToeBase 21.111875 -0.000000 -0.000000
LeftUpLeg -33.059056 2.024247 -2.466966
LeftLeg 0.798620 -0.000000 -0.000000
LeftFoot -9.149562 -7.526109 -7.353323
LeftToeBase 9.819906 -0.000000 -0.000000
Spine -41.039511 -2.801193 1.257275
RightShoulder -19.475450 17.501059 -48.598202
RightArm 4.228010 -16.350608 36.454999
RightForeArm 4.607072 -0.000000 -7.515140
RightHand 3.252614 -0.000000 9.620707
RightHandThumb1 -24.326973 -0.000000 -32.862282
LeftShoulder -13.103321 2.736356 41.305580
LeftArm 22.470141 -15.084312 -33.464638
LeftForeArm 17.550130 -0.000000 -4.342160
LeftHand -22.300064 -0.000000 -3.420537
LeftHandThumb1 -26.253704 0.000000 33.147579
Head 7.211742 0.670590 5.651453
90
root -3.276478 32.601352 -4.277680 38.150222 4.023675 1.062249
RightUpLeg -30.537539 -10.828367 8.911245
RightLeg -4.326851 -0.000000 0.000000
RightFoot -9.006909 3.742907 19.863651
RightToeBase 21.137854 -0.000000 -0.000000
LeftUpLeg -33.059789 2.019399 -2.463140
LeftLeg 0.794788 -0.000000 -0.000000
LeftFoot -9.143418 -7.516867 -7.343704
LeftToeBase 9.811423 -0.000000 -0.000000
Spine -41.044089 -2.812868 1.273179
RightShoulder -19.458360 17.517036 -48.592421
RightArm 4.170183 -16.357645 36.482032
RightForeArm 4.604570 -0.000000 -7.461921
RightHand 3.167175 -0.000000 9.616545
RightHandThumb1 -24.326973 -0.000000 -32.862282
LeftShoulder -13.098462 2.742002 41.299192
LeftArm 22.477877 -15.078509 -33.485373
LeftForeArm 17.525868 -0.000000 -4.342819
LeftHand -22.270423 -0.000000 -3.473541
LeftHandThumb1 -26.253704 0.000000 33.147579
Head 7.259292 0.673346 5.663815
91
root -3.277023 32.601902 -4.280725 38.144280 4.030998 1.070156
RightUpLeg -30.539743 -10.841186 8.914200
RightLeg -4.324122 -0.000000 0.000000
RightFoot -9.010575 3.751595 19.872185
RightToeBase 21.171254 -0.000000 -0.000000
LeftUpLeg -33.066395 2.027476 -2.472781
LeftLeg 0.808068 -0.000000 -0.000000
LeftFoot -9.126849 -7.550389 -7.363305
LeftToeBase 9.795003 -0.000000 -0.000000
Spine -41.047206 -2.814856 1.279633
RightShoulder -19.450282 17.516431 -48.591744
RightArm 4.137115 -16.368519 36.508015
RightForeArm 4.656522 -0.000000 -7.442899
RightHand 3.204791 -0.000000 9.573458
RightHandThumb1 -24.326973 -0.000000 -32.862282
LeftShoulder -13.084042 2.735499 41.297526
LeftArm 22.472267 -15.064689 -33.520187
LeftForeArm 17.454002 -0.000000 -4.346021
LeftHand -22.233866 -0.000000 -3.458589
LeftHandThumb1 -26.253704 0.000000 33.147579
Head 7.306613 0.660358 5.668565
92
root -3.277959 32.602308 -4.283935 38.134287 4.040989 1.075796
RightUpLeg -30.530848 -10.843712 8.908211
RightLeg -4.330647 -0.000000 0.000000
RightFoot -8.991947 3.743823 19.912322
RightToeBase 21.111797 -0.000000 -0.000000
LeftUpLeg -33.057874 2.030156 -2.478140
LeftLeg 0.795931 -0.000000 -0.000000
LeftFoot -9.105405 -7.572981 -7.360407
LeftToeBase 9.825387 -0.000000 -0.000000
Spine -41.047710 -2.820214 1.290480
RightShoulder -19.449315 17.532430 -48.590968
RightArm 4.111099 -16.391515 36.533146
RightForeArm 4.673515 -0.000000 -7.436744
RightHand 3.275126 0.000000 9.483018
RightHandThumb1 -24.326973 -0.000000 -32.862282
LeftShoulder -13.072468 2.717476 41.297052
LeftArm 22.465702 -15.050035 -33.552662
LeftForeArm 17.454533 0.000000 -4.331770
LeftHand -22.235691 0.000000 -3.563076
LeftHandThumb1 -26.253704 0.000000 33.147579
Head 7.364326 0.655354 5.680155
93
root -3.279166 32.602844 -4.286261 38.116820 4.043684 1.076228
RightUpLeg -30.527603 -10.853238 8.914634
RightLeg -4.312444 -0.000000 0.000000
RightFoot -9.011259 3.746774 19.877193
RightToeBase 21.167476 -0.000000 -0.000000
LeftUpLeg -33.041045 2.048228 -2.486876
LeftLeg 0.783244 -0.000000 -0.000000
LeftFoot -9.085891 -7.579255 -7.370596
LeftToeBase 9.783625 -0.000000 -0.000000
Spine -41.043495 -2.823189 1.307691
RightShoulder -19.438374 17.521562 -48.581693
RightArm 4.107035 -16.362175 36.561894
RightForeArm 4.674398 -0.000000 -7.433745
RightHand 3.350308 -0.000000 9.405108
RightHandThumb1 -24.326973 -0.000000 -32.862282
LeftShoulder -13.072504 2.743722 41.280875
LeftArm 22.492965 -15.046590 -33.586013
LeftForeArm 17.395985 -0.000000 -4.340085
LeftHand -22.177152 0.000000 -3.570884
LeftHandThumb1 -26.253704 0.000000 33.147579
Head 7.424146 0.659993 5.687183
94
root -3.280220 32.603728 -4.289289 38.105407 4.051699 1.076751
RightUpLeg -30.524088 -10.870597 8.926406
RightLeg -4.310613 -0.000000 0.000000
RightFoot -9.006656 3.742263 19.842686
RightToeBase 21.181148 -0.000000 -0.000000
LeftUpLeg -33.032614 2.050053 -2.484565
LeftLeg 0.776339 -0.000000 -0.000000
LeftFoot -9.073990 -7.583814 -7.366181
LeftToeBase 9.754669 -0.000000 -0.000000
Spine -41.042853 -2.823946 1.318747
RightShoulder -19.446912 17.521119 -48.583753
RightArm 4.097570 -16.347812 36.600498
RightForeArm 4.638735 -0.000000 -7.431421
RightHand 3.550736 -0.000000 9.312869
RightHandThumb1 -24.326973 -0.000000 -32.862282
LeftShoulder -13.064175 2.703248 41.281315
LeftArm 22.484824 -15.019935 -33.622874
LeftForeArm 17.360861 -0.000000 -4.348174
LeftHand -22.169494 0.000000 -3.584205
LeftHandThumb1 -26.253704 0.000000 33.147579
Head 7.482990 0.650589 5.698968
95
root -3.281245 32.604359 -4.292094 38.091338 4.054338 1.071146
RightUpLeg -30.521767 -10.883351 8.941630
RightLeg -4.304285 -0.000000 0.000000
RightFoot -8.979193 3.766434 19.904074
RightToeBase 21.160948 -0.000000 -0.000000
LeftUpLeg -33.021098 2.054123 -2.476321
LeftLeg 0.766268 -0.000000 -0.000000
LeftFoot -9.053748 -7.602661 -7.375868
LeftToeBase 9.792122 -0.000000 -0.000000
Spine -41.044686 -2.819835 1.344353
RightShoulder -19.424950 17.527019 -48.579342
RightArm 4.067528 -16.279373 36.631610
RightForeArm 4.640977 -0.000000 -7.391235
RightHand 3.432500 -0.000000 9.257167
RightHandThumb1 -24.326973 -0.000000 -32.862282
LeftShoulder -13.052493 2.720656 41.266156
LeftArm 22.494919 -15.041081 -33.672230
LeftForeArm 17.329842 -0.000000 -4.343719
LeftHand -22.194805 -0.000000 -3.657386
LeftHandThumb1 -26.253704 0.000000 33.147579
Head 7.552459 0.658838 5.690382
96
root -3.281680 32.605215 -4.295537 38.080535 4.049103 1.089592
RightUpLeg -30.493929 -10.846119 8.894237
RightLeg -4.338123 -0.000000 0.000000
RightFoot -8.969781 3.704468 19.905030
RightToeBase 21.102298 -0.000000 -0.000000
LeftUpLeg -33.014700 2.061156 -2.505420
LeftLeg 0.768352 -0.000000 -0.000000
LeftFoot -9.040498 -7.600321 -7.353607
LeftToeBase 9.777461 -0.000000 -0.000000
Spine -41.045989 -2.832757 1.347513
RightShoulder -19.404571 17.546084 -48.559913
RightArm 4.057705 -16.312435 36.637236
RightForeArm 4.720440 -0.000000 -7.385824
RightHand 3.459978 -0.000000 9.284862
RightHandThumb1 -24.326973 -0.000000 -32.862282
LeftShoulder -13.045011 2.689069 41.266349
LeftArm 22.469072 -15.021620 -33.716740
LeftForeArm 17.250944 -0.000000 -4.341281
LeftHand -22.210592 -0.000000 -3.614050
LeftHandThumb1 -26.253704 0.000000 33.147579
Head 7.615559 0.663838 5.698687
